<svg width="108" height="35" viewBox="0 0 108 35" fill="none" xmlns="http://www.w3.org/2000/svg">
<g clip-path="url(#clip0_1_620)">
<path d="M30.1064 24.8491C30.1064 27.6559 29.1877 30.007 27.3502 31.9025C25.5146 33.7974 23.2315 34.7452 20.5007 34.7458H12.4517V21.3155H17.6471V29.8529H20.5007C21.876 29.8529 22.9966 29.3953 23.8624 28.48C24.7296 27.5679 25.1626 26.3576 25.1613 24.8491C25.1613 23.3404 24.7283 22.1288 23.8624 21.2142C22.9972 20.3003 21.8766 19.8433 20.5007 19.8433H9.59807C8.07159 19.8659 6.56211 19.5203 5.19722 18.8356C5.10935 18.7917 5.02148 18.7438 4.93554 18.6961C4.12697 18.2426 3.38997 17.6717 2.74852 17.002C1.00697 15.2196 0.0220231 12.8317 0 10.3385L0 9.5717C0.0764283 6.92732 0.992629 4.70045 2.7486 2.89106C4.58414 0.996253 6.8673 0.0485187 9.59807 0.0478516H17.6471V13.48H12.4517V4.94079H9.59807C8.22283 4.94079 7.10226 5.39777 6.23639 6.31172C5.36921 7.22573 4.93562 8.4367 4.93562 9.94462C4.93562 11.4551 5.36921 12.6667 6.23639 13.5794C7.10163 14.4934 8.22219 14.951 9.59807 14.9523H20.5007C23.2321 14.9523 25.5153 15.8987 27.3502 17.7917C29.1877 19.6865 30.1064 22.039 30.1064 24.8491Z" fill="#4A4A4A"/>
<path d="M48.7823 0H44.1387L39.2182 14.9261H43.3506L43.9896 12.7724H48.9526L49.5918 14.9261H53.7029L48.7823 0ZM44.9695 9.4888L46.4605 4.41394L47.9729 9.4888H44.9695Z" fill="#E97522"/>
<path d="M60.8597 1.24557e-08H54.7889V9.90914H58.7083V3.68889H60.8597C61.3313 3.67211 61.801 3.75561 62.2379 3.93388C62.6749 4.11216 63.0691 4.38115 63.3945 4.72312C64.0475 5.41269 64.3741 6.32601 64.3744 7.46306C64.3744 8.60042 64.0478 9.51373 63.3946 10.203C63.0691 10.545 62.6749 10.814 62.238 10.9923C61.801 11.1706 61.3313 11.2541 60.8597 11.2372H54.7889V14.9261H60.8597C62.9185 14.9261 64.6403 14.2118 66.0251 12.7831C67.4099 11.3545 68.1022 9.58111 68.1019 7.46306C68.1019 5.34512 67.4096 3.57176 66.0251 2.14299C64.6405 0.714222 62.9187 -0.000108915 60.8597 1.24557e-08Z" fill="#E97522"/>
<path d="M75.9404 1.24557e-08H69.8696V3.68889H75.9404C76.412 3.67211 76.8817 3.75561 77.3186 3.93388C77.7556 4.11215 78.1498 4.38115 78.4752 4.72312C79.1282 5.41275 79.4548 6.32606 79.455 7.46306C79.455 8.60042 79.1284 9.51373 78.4752 10.203C78.1498 10.545 77.7556 10.814 77.3187 10.9923C76.8817 11.1706 76.412 11.254 75.9404 11.2372H73.789V5.01698H69.8696V14.9261H75.9404C77.9992 14.9261 79.7209 14.2118 81.1057 12.7831C82.4906 11.3545 83.1828 9.58111 83.1826 7.46306C83.1826 5.34512 82.4903 3.57176 81.1057 2.14299C79.7212 0.714222 77.9994 -0.000108915 75.9404 1.24557e-08Z" fill="#E97522"/>
<path d="M45.012 19.754C45.7098 19.7356 46.4044 19.8562 47.0553 20.1088C47.7062 20.3613 48.3005 20.7408 48.8037 21.2253C49.826 22.2063 50.3372 23.4574 50.3373 24.9783C50.3373 26.4996 49.8261 27.7505 48.8037 28.7311C48.3006 29.2156 47.7063 29.5952 47.0554 29.8477C46.4044 30.1003 45.7098 30.2208 45.012 30.2024H43.0309V34.6804H39.2182V19.754H45.012ZM45.012 26.5775C45.2125 26.5818 45.4117 26.5441 45.597 26.467C45.7822 26.3899 45.9493 26.275 46.0876 26.1296C46.2338 25.9768 46.3477 25.7961 46.4228 25.5984C46.4979 25.4006 46.5325 25.1898 46.5246 24.9783C46.5332 24.7684 46.4988 24.559 46.4237 24.3628C46.3486 24.1667 46.2342 23.988 46.0876 23.8376C45.9477 23.695 45.78 23.5827 45.595 23.5074C45.41 23.4322 45.2116 23.3957 45.012 23.4002H43.0309V26.5775H45.012Z" fill="#B1B1B1"/>
<path d="M59.8377 19.7539H63.6291V34.6803H59.8377V28.9444H55.6411V34.6803H51.8284V19.7539H55.6411V25.2765H59.8377V19.7539Z" fill="#B1B1B1"/>
<path d="M78.785 32.7507C77.2973 34.1934 75.3073 35.0001 73.236 35.0001C71.1648 35.0001 69.1748 34.1934 67.6871 32.7507C66.9492 32.0341 66.3669 31.1728 65.9766 30.2207C65.5862 29.2686 65.3962 28.2462 65.4185 27.2172C65.3963 26.1883 65.5863 25.1658 65.9766 24.2138C66.367 23.2617 66.9493 22.4004 67.6871 21.6837C69.1748 20.241 71.1648 19.4343 73.236 19.4343C75.3073 19.4343 77.2973 20.241 78.785 21.6837C79.5228 22.4004 80.105 23.2617 80.4953 24.2138C80.8857 25.1659 81.0757 26.1883 81.0535 27.2172C81.0757 28.2461 80.8857 29.2686 80.4954 30.2207C80.1051 31.1728 79.5228 32.0341 78.785 32.7507ZM70.3603 30.1279C71.037 30.85 71.9441 31.3132 72.9253 31.4378C73.9065 31.5623 74.9003 31.3403 75.7356 30.8101C76.5709 30.28 77.1953 29.4747 77.5013 28.5332C77.8072 27.5917 77.7755 26.5728 77.4116 25.6522C77.0478 24.7315 76.3746 23.9667 75.5079 23.4896C74.6413 23.0124 73.6356 22.8528 72.664 23.0382C71.6925 23.2236 70.8159 23.7424 70.1854 24.5052C69.5549 25.2681 69.21 26.2271 69.2099 27.2172C69.192 27.7554 69.2848 28.2916 69.4827 28.7923C69.6806 29.2931 69.9793 29.7477 70.3603 30.1279Z" fill="#B1B1B1"/>
<path d="M92.3007 19.7539V23.4427H88.6154V34.6803H84.8027V23.4427H81.1174V19.7539H92.3007Z" fill="#B1B1B1"/>
<path d="M105.731 32.7507C104.244 34.1934 102.254 35.0001 100.182 35.0001C98.1112 35.0001 96.1212 34.1934 94.6335 32.7507C93.8956 32.0341 93.3133 31.1728 92.923 30.2207C92.5326 29.2686 92.3426 28.2462 92.3649 27.2172C92.3427 26.1883 92.5327 25.1659 92.923 24.2138C93.3134 23.2617 93.8956 22.4004 94.6335 21.6837C96.1212 20.241 98.1112 19.4343 100.182 19.4343C102.254 19.4343 104.244 20.241 105.731 21.6837C106.469 22.4004 107.051 23.2617 107.442 24.2138C107.832 25.1659 108.022 26.1883 108 27.2172C108.022 28.2461 107.832 29.2686 107.442 30.2207C107.052 31.1728 106.469 32.0341 105.731 32.7507ZM97.3067 30.1279C97.9834 30.85 98.8905 31.3132 99.8717 31.4378C100.853 31.5623 101.847 31.3403 102.682 30.8101C103.517 30.28 104.142 29.4747 104.448 28.5332C104.754 27.5917 104.722 26.5728 104.358 25.6522C103.994 24.7315 103.321 23.9667 102.454 23.4896C101.588 23.0124 100.582 22.8528 99.6104 23.0382C98.6389 23.2236 97.7623 23.7424 97.1318 24.5052C96.5013 25.2681 96.1564 26.2271 96.1564 27.2172C96.1384 27.7554 96.2312 28.2916 96.4291 28.7923C96.627 29.2931 96.9258 29.7477 97.3067 30.1279Z" fill="#B1B1B1"/>
</g>
<defs>
<clipPath id="clip0_1_620">
<rect width="108" height="35" fill="white"/>
</clipPath>
</defs>
</svg>
