<svg width="19" height="18" viewBox="0 0 19 18" fill="none" xmlns="http://www.w3.org/2000/svg">
<path d="M18.2208 9.25C18.2208 4.46875 14.2833 0.53125 9.50201 0.53125C4.68561 0.53125 0.783264 4.46875 0.783264 9.25C0.783264 14.0664 4.68561 17.9688 9.50201 17.9688C14.2833 17.9688 18.2208 14.0664 18.2208 9.25ZM8.48248 13.8906C8.27155 14.1016 7.88483 14.1016 7.67389 13.8906L4.01764 10.2344C3.8067 10.0234 3.8067 9.63672 4.01764 9.42578L4.82623 8.65234C5.03717 8.40625 5.38873 8.40625 5.59967 8.65234L8.09576 11.1133L13.3692 5.83984C13.5801 5.59375 13.9317 5.59375 14.1426 5.83984L14.9512 6.61328C15.1622 6.82422 15.1622 7.21094 14.9512 7.42188L8.48248 13.8906Z" fill="#4A4A4A"/>
</svg>
