<svg width="50" height="50" viewBox="0 0 50 50" fill="none" xmlns="http://www.w3.org/2000/svg">
<circle cx="25" cy="25" r="25" fill="#F9F4EE"/>
<path d="M26.9937 23.55C28.8337 23.85 30.2437 24.54 31.2237 25.62C32.2037 26.68 32.6937 28 32.6937 29.58C32.6937 30.8 32.3737 31.93 31.7337 32.97C31.0937 33.99 30.1137 34.81 28.7937 35.43C27.4937 36.05 25.8937 36.36 23.9937 36.36C22.5137 36.36 21.0537 36.17 19.6137 35.79C18.1937 35.39 16.9837 34.83 15.9837 34.11L17.8737 30.39C18.6737 30.99 19.5937 31.46 20.6337 31.8C21.6937 32.12 22.7737 32.28 23.8737 32.28C25.0937 32.28 26.0537 32.05 26.7537 31.59C27.4537 31.11 27.8037 30.44 27.8037 29.58C27.8037 27.86 26.4937 27 23.8737 27H21.6537V23.79L25.9737 18.9H17.0337V15H31.7337V18.15L26.9937 23.55Z" fill="#E97522"/>
</svg>
