<svg width="50" height="50" viewBox="0 0 50 50" fill="none" xmlns="http://www.w3.org/2000/svg">
<circle cx="25" cy="25" r="25" fill="#F9F4EE"/>
<path d="M24.3398 22.89C27.2998 22.89 29.4798 23.48 30.8798 24.66C32.2998 25.84 33.0098 27.42 33.0098 29.4C33.0098 30.68 32.6898 31.85 32.0498 32.91C31.4098 33.95 30.4298 34.79 29.1098 35.43C27.8098 36.05 26.1998 36.36 24.2798 36.36C22.7998 36.36 21.3398 36.17 19.8998 35.79C18.4798 35.39 17.2698 34.83 16.2698 34.11L18.1898 30.39C18.9898 30.99 19.9098 31.46 20.9498 31.8C21.9898 32.12 23.0598 32.28 24.1598 32.28C25.3798 32.28 26.3398 32.04 27.0398 31.56C27.7398 31.08 28.0898 30.41 28.0898 29.55C28.0898 28.65 27.7198 27.97 26.9798 27.51C26.2598 27.05 24.9998 26.82 23.1998 26.82H17.8298L18.9098 15H31.7198V18.9H22.9598L22.6298 22.89H24.3398Z" fill="#E97522"/>
</svg>
