<svg width="50" height="50" viewBox="0 0 50 50" fill="none" xmlns="http://www.w3.org/2000/svg">
<circle cx="25" cy="25" r="25" fill="#F9F4EE"/>
<path d="M32.903 32.04V36H17.033V32.85L25.133 25.2C25.993 24.38 26.573 23.68 26.873 23.1C27.173 22.5 27.323 21.91 27.323 21.33C27.323 20.49 27.033 19.85 26.453 19.41C25.893 18.95 25.063 18.72 23.963 18.72C23.043 18.72 22.213 18.9 21.473 19.26C20.733 19.6 20.113 20.12 19.613 20.82L16.073 18.54C16.893 17.32 18.023 16.37 19.463 15.69C20.903 14.99 22.553 14.64 24.413 14.64C25.973 14.64 27.333 14.9 28.493 15.42C29.673 15.92 30.583 16.64 31.223 17.58C31.883 18.5 32.213 19.59 32.213 20.85C32.213 21.99 31.973 23.06 31.493 24.06C31.013 25.06 30.083 26.2 28.703 27.48L23.873 32.04H32.903Z" fill="#E97522"/>
</svg>
